<?xml version="1.0" standalone="no"?>
<!DOCTYPE svg PUBLIC "-//W3C//DTD SVG 20010904//EN"
 "http://www.w3.org/TR/2001/REC-SVG-20010904/DTD/svg10.dtd">
<svg version="1.0" xmlns="http://www.w3.org/2000/svg"
 width="120.000000pt" height="120.000000pt" viewBox="0 0 120.000000 120.000000"
 preserveAspectRatio="xMidYMid meet">
<metadata>
Created by potrace 1.14, written by Peter Selinger 2001-2017
</metadata>
<g transform="translate(0.000000,120.000000) scale(0.100000,-0.100000)"
fill="#000000" stroke="none">
<path d="M464 1032 c31 -102 47 -222 30 -222 -4 0 -22 13 -40 30 -52 45 -114
73 -160 72 -29 0 -71 -15 -135 -47 -52 -26 -95 -48 -97 -50 -2 -2 22 -17 52
-35 72 -41 155 -117 183 -167 l23 -40 -43 -12 c-46 -14 -187 -77 -187 -84 0
-2 33 -12 72 -22 40 -10 95 -27 123 -39 l50 -22 -55 -30 -54 -29 95 -10 95
-10 65 -67 c98 -100 158 -101 248 -3 39 42 44 44 103 47 59 3 61 4 36 15 -16
7 -28 15 -28 17 0 3 33 15 73 27 70 20 106 39 77 39 -8 0 -33 5 -54 11 l-39
11 119 66 119 67 -77 3 c-43 2 -78 7 -78 12 0 4 19 25 43 45 l42 37 -105 -7
-105 -7 -25 38 c-15 23 -45 49 -72 64 -44 23 -48 28 -48 61 0 56 -28 136 -61
173 -28 33 -43 39 -177 82 -9 2 -11 -2 -8 -14z m226 -524 c0 -24 -4 -60 -9
-80 -12 -50 1 -41 49 33 20 32 40 56 43 53 2 -3 1 -23 -4 -45 -10 -41 1 -83
15 -60 13 21 26 11 26 -20 0 -22 -9 -40 -30 -59 -16 -15 -30 -32 -30 -37 0
-11 -54 -63 -90 -86 -31 -22 -79 -22 -110 0 -41 27 -90 76 -90 90 0 8 -6 16
-14 19 -24 9 -49 55 -48 87 1 38 9 45 27 21 14 -19 14 -19 15 0 0 18 1 18 20
1 20 -18 20 -17 20 25 0 41 20 80 42 80 4 0 8 -30 8 -67 l1 -68 21 30 c33 45
114 125 127 125 6 0 11 -17 11 -42z"/>
</g>
</svg>
